<svg width="100" height="100" viewBox="0 0 100 100" fill="none" xmlns="http://www.w3.org/2000/svg">
<path d="M49.9258 2.10935C49.506 2.12383 49.1015 2.27006 48.7695 2.52732L2.76951 38.4218C2.35097 38.7482 2.0792 39.2274 2.014 39.7541C1.94881 40.2809 2.09552 40.8119 2.42186 41.2304C2.7482 41.649 3.22744 41.9207 3.75415 41.9859C4.28086 42.0511 4.8119 41.9044 5.23045 41.5781L7.99998 39.4179V92C8.00003 92.5304 8.21076 93.0391 8.58582 93.4141C8.96089 93.7892 9.46956 93.9999 9.99998 94H37.664C37.88 94.0357 38.1004 94.0357 38.3164 94H61.664C61.88 94.0357 62.1004 94.0357 62.3164 94H90C90.5304 93.9999 91.0391 93.7892 91.4141 93.4141C91.7892 93.0391 91.9999 92.5304 92 92V39.4179L94.7695 41.5781C94.9767 41.7397 95.2138 41.8589 95.4671 41.9289C95.7204 41.9989 95.985 42.0183 96.2458 41.986C96.5067 41.9538 96.7586 41.8704 96.9872 41.7408C97.2158 41.6112 97.4166 41.4378 97.5782 41.2305C97.7398 41.0233 97.859 40.7862 97.929 40.5329C97.999 40.2796 98.0184 40.015 97.9861 39.7542C97.9538 39.4933 97.8704 39.2415 97.7408 39.0129C97.6111 38.7843 97.4377 38.5834 97.2304 38.4218L82 26.539V12H70V17.1719L51.2304 2.52732C50.8583 2.23876 50.3963 2.09075 49.9258 2.10935ZM50 6.64451L88 36.2968V90H64V52H36V90H12V36.2968L50 6.64451ZM74 16H78V23.4179L74 20.2929V16ZM40 56H60V90H40V56Z" fill="black"/>
</svg>
