<svg width="28" height="28" viewBox="0 0 28 28" fill="none" xmlns="http://www.w3.org/2000/svg">
<path d="M17.5 13.9998H7M7 13.9998L9.33333 16.3332M7 13.9998L9.33333 11.6665" stroke="black" stroke-width="1.75" stroke-linecap="round" stroke-linejoin="round"/>
<path d="M14 25.6466C12.1876 25.592 11.1066 25.3899 10.3584 24.6417C9.46198 23.7452 9.34946 22.371 9.33533 19.8335M18.6667 25.6648C21.2042 25.6507 22.5784 25.5381 23.4748 24.6417C24.5 23.6165 24.5 21.9666 24.5 18.6668V16.3335V11.6668V9.3335C24.5 6.03366 24.5 4.38375 23.4748 3.35862C22.4497 2.3335 20.7998 2.3335 17.5 2.3335H16.3333C13.0334 2.3335 11.3836 2.3335 10.3584 3.35862C9.46198 4.25507 9.34946 5.62929 9.33533 8.16683" stroke="black" stroke-width="1.75" stroke-linecap="round"/>
<path d="M3.5 11.0833V16.9167C3.5 19.6665 3.5 21.0414 4.35427 21.8958C5.20855 22.75 6.58348 22.75 9.33333 22.75M4.35427 6.10427C5.20855 5.25 6.58348 5.25 9.33333 5.25" stroke="black" stroke-width="1.75" stroke-linecap="round"/>
</svg>
